# xmcd
#
# Track frame offsets:
#	150
#	11654
#	26179
#	43469
#	55213
#	70992
#	94179
#	108648
#	126002
#	145847
#
# Disc length: 2119 seconds
#
# Revision: 1
# Processed by: cddbd v1.5.2PL0 Copyright (c) Steve Scherf et al.
# Submitted via: audiograbber 1.83.01
#
DISCID=9408450a
DTITLE=The Fried Okra Band - Black Cherry
DYEAR=2009
DGENRE=Blues
TTITLE0=I Got This Record
TTITLE1=Do Me Wrong
TTITLE2=I Know You're Gone
TTITLE3=Catch The B Train
TTITLE4=Donuts and Devils
TTITLE5=You Can Howl
TTITLE6=Breakfast
TTITLE7=What's Wrong With Me
TTITLE8=Nobody's Slave
TTITLE9=Heavy Rain
EXTD=
EXTT0=
EXTT1=
EXTT2=
EXTT3=
EXTT4=
EXTT5=
EXTT6=
EXTT7=
EXTT8=
EXTT9=
PLAYORDER=
